<svg xmlns="http://www.w3.org/2000/svg" version="1.1" xmlns:xlink="http://www.w3.org/1999/xlink" xmlns:svgjs="http://svgjs.dev/svgjs" width="1200" height="300" preserveAspectRatio="none" viewBox="0 0 1200 300">
    <g mask="url(&quot;#SvgjsMask1071&quot;)" fill="none">
        <rect width="1200" height="300" x="0" y="0" fill="#0e2a47"></rect>
        <path d="M1046.08 158.87a19.86 19.86 0 1 0-25.29 30.63z" fill="#e73635"></path>
        <path d="M97.21 135.23L119.76 135.23L119.76 162.35L97.21 162.35z" stroke="#e73635"></path>
        <path d="M24.54 187.84 a0.38 0.38 0 1 0 0.76 0 a0.38 0.38 0 1 0 -0.76 0z" stroke="#d3b714"></path>
        <path d="M782.74 55.52L804.08 55.52L804.08 76.86L782.74 76.86z" stroke="#e73635"></path>
        <path d="M322.04 184.36 a7.07 7.07 0 1 0 14.14 0 a7.07 7.07 0 1 0 -14.14 0z" stroke="#037b0b"></path>
        <path d="M312.82 138.24L326.14 138.24L326.14 160.61L312.82 160.61z" fill="#d3b714"></path>
        <path d="M352.34 236.84a15.27 15.27 0 1 0-11.57-28.26z" stroke="#d3b714"></path>
        <path d="M811.56 189.25a6.46 6.46 0 1 0-11.11 6.6z" stroke="#d3b714"></path>
        <path d="M836.19 235.43L855.17 235.43L855.17 254.41L836.19 254.41z" stroke="#037b0b"></path>
        <path d="M1046.62 268.54 a21.45 21.45 0 1 0 42.9 0 a21.45 21.45 0 1 0 -42.9 0z" fill="#e73635"></path>
        <path d="M506.74 81.77L518.86 81.77L518.86 104.1L506.74 104.1z" fill="#037b0b"></path>
        <path d="M587.18 160.52a12.14 12.14 0 1 0 24.14 2.58z" fill="#e73635"></path>
        <path d="M38.95 246.3L47.96 246.3L47.96 255.31L38.95 255.31z" fill="#e73635"></path>
        <path d="M711.76 65.45a18.82 18.82 0 1 0-32.82 18.43z" fill="#e73635"></path>
        <path d="M603.57 83.41 a12.32 12.32 0 1 0 24.64 0 a12.32 12.32 0 1 0 -24.64 0z" stroke="#e73635"></path>
        <path d="M489.81 271.34a27.48 27.48 0 1 0 54.76 4.78z" fill="#037b0b"></path>
        <path d="M107.5 16.02 a10.89 10.89 0 1 0 21.78 0 a10.89 10.89 0 1 0 -21.78 0z" fill="#d3b714"></path>
        <path d="M732.74 88.26L753.62 88.26L753.62 97.69L732.74 97.69z" fill="#d3b714"></path>
        <path d="M260.83 242.22L278.06 242.22L278.06 259.45L260.83 259.45z" stroke="#e73635"></path>
        <path d="M24.16 258.53 a21.53 21.53 0 1 0 43.06 0 a21.53 21.53 0 1 0 -43.06 0z" stroke="#e73635"></path>
        <path d="M1141.25 67.41L1160.26 67.41L1160.26 86.42L1141.25 86.42z" fill="#e73635"></path>
        <path d="M448.79 12.75L449.65 12.75L449.65 13.61L448.79 13.61z" stroke="#e73635"></path>
        <path d="M507.2 91.65L528.86 91.65L528.86 113.31L507.2 113.31z" fill="#e73635"></path>
        <path d="M121.29 265.68L147.72 265.68L147.72 270.41L121.29 270.41z" fill="#037b0b"></path>
        <path d="M37.88 197.59a2.64 2.64 0 1 0 2.48-4.66z" fill="#e73635"></path>
        <path d="M33.46 41.6 a23.69 23.69 0 1 0 47.38 0 a23.69 23.69 0 1 0 -47.38 0z" fill="#037b0b"></path>
        <path d="M317.63 37.17a29.59 29.59 0 1 0-44.44 39.08z" stroke="#e73635"></path>
        <path d="M247.71 0.64a27.62 27.62 0 1 0-6.64 54.84z" fill="#d3b714"></path>
        <path d="M1002.58 245.33L1008.68 245.33L1008.68 250.31L1002.58 250.31z" fill="#037b0b"></path>
        <path d="M172.65 194.3 a19.59 19.59 0 1 0 39.18 0 a19.59 19.59 0 1 0 -39.18 0z" fill="#d3b714"></path>
        <path d="M786.67 278.06a6.98 6.98 0 1 0 2.67-13.7z" stroke="#037b0b"></path>
        <path d="M412.51 87.29L418.89 87.29L418.89 93.67L412.51 93.67z" fill="#037b0b"></path>
        <path d="M744.23 168.54 a29.54 29.54 0 1 0 59.08 0 a29.54 29.54 0 1 0 -59.08 0z" stroke="#037b0b"></path>
        <path d="M874.55 153.82L892.35 153.82L892.35 171.62L874.55 171.62z" fill="#037b0b"></path>
        <path d="M260.62 9.3 a15.55 15.55 0 1 0 31.1 0 a15.55 15.55 0 1 0 -31.1 0z" stroke="#037b0b"></path>
        <path d="M559.4 125.22L584.57 125.22L584.57 142.05L559.4 142.05z" fill="#e73635"></path>
        <path d="M546.53 154.97L563.76 154.97L563.76 172.2L546.53 172.2z" stroke="#d3b714"></path>
        <path d="M778.92 62.24 a12.5 12.5 0 1 0 25 0 a12.5 12.5 0 1 0 -25 0z" stroke="#037b0b"></path>
        <path d="M531.43 232.14a8.36 8.36 0 1 0-1.35 16.67z" stroke="#037b0b"></path>
        <path d="M1161.13 66.05L1176.95 66.05L1176.95 81.87L1161.13 81.87z" stroke="#e73635"></path>
        <path d="M184.97 109.55L189.36 109.55L189.36 134.37L184.97 134.37z" fill="#037b0b"></path>
        <path d="M271.74 12.33L285.59 12.33L285.59 26.18L271.74 26.18z" stroke="#037b0b"></path>
        <path d="M1026.1 66.4 a6.43 6.43 0 1 0 12.86 0 a6.43 6.43 0 1 0 -12.86 0z" fill="#e73635"></path>
        <path d="M269.06 69.27L298.42 69.27L298.42 98.63L269.06 98.63z" fill="#e73635"></path>
        <path d="M40.4 97.5L67.83 97.5L67.83 124.93L40.4 124.93z" stroke="#d3b714"></path>
        <path d="M791.58 20.52L817.15 20.52L817.15 46.09L791.58 46.09z" stroke="#d3b714"></path>
        <path d="M831.02 137.38 a14.34 14.34 0 1 0 28.68 0 a14.34 14.34 0 1 0 -28.68 0z" fill="#e73635"></path>
        <path d="M285.11 26.63a29.41 29.41 0 1 0-47.68 34.43z" fill="#d3b714"></path>
        <path d="M223.26 161.7L238.01 161.7L238.01 176.45L223.26 176.45z" stroke="#037b0b"></path>
        <path d="M316.39 257.67 a7.44 7.44 0 1 0 14.88 0 a7.44 7.44 0 1 0 -14.88 0z" fill="#037b0b"></path>
    </g>
    <defs>
        <mask id="SvgjsMask1071">
            <rect width="1200" height="300" fill="#ffffff"></rect>
        </mask>
    </defs>
  </svg>